#!OML:ASF E:/inclinewalkrobotboard/Project1/Captureday1/Session1/subject1.ASF
:FULLY-SPECIFIED
:DEGREES
1
root 0 0 0 -0.20930642359827534 -2.70306404356492 -4.874906521330923
lowerback 7.355734149494241 1.8911999879858818 2.3308335302862284
upperback 0.2270704418857168 2.7931696452782253 0.029461064047298535
thorax -3.8907869048958585 1.3777739403714204 -1.5367904043033047
lowerneck -13.576001583230312 -2.1451125106615105 -3.5915725195440857
upperneck 12.825728071826305 -2.5590925111915173 1.7045974294194242
head 6.569210318850973 -1.1065294621035138 0.8687495125873061
rclavicle -2.6786859568719197E-15 2.3211224679347924E-16
rhumerus -5.996143456445522 2.057145147398437 -70.61693113417006
rradius 24.23660892826655
rwrist 32.7801676659827
rhand -11.038516548433021 13.829718021479431
rfingers 7.125020000000026
rthumb 14.92105481070356 -15.763263018228429
lclavicle 7.624152474176965E-16 -7.351571800501477E-16
lhumerus -1.5610967364194082 -1.8894542785899908 66.78353453492915
lradius 51.2889124285099
lwrist -0.9654498165630603
lhand -17.271058052347414 26.095198377262278
lfingers 7.099627488521172
lthumb 8.750191167899315 57.3067451607158
rfemur -2.2710768750546713 13.438193729255627 22.15398046641591
rtibia 29.00839233297851
rfoot -19.41066736761016 -11.902353962045938
rtoes -2.9632001864300737
lfemur -10.217339191091659 -6.09649084308052 -12.941859295462635
ltibia 28.242638261629438
lfoot -11.674090783372648 10.888407037248676
ltoes -2.120344028116808
2
root 0 0 0 -0.38206956782972856 -2.790940724875311 -4.7494480339043434
lowerback 7.230883678083327 1.8451275940873986 2.267715664961565
upperback 0.20989561591152217 2.731041006991716 0.03152828686709852
thorax -3.837092664692939 1.3470132977074565 -1.4915755480394908
lowerneck -13.514303766748633 -2.0626790842544582 -3.58817488342871
upperneck 13.089308066165101 -2.4594149777107868 1.6467160768234654
head 6.628596308159974 -1.0596532725056884 0.8546948773969287
rclavicle -2.695771508426945E-15 2.3952835376234633E-16
rhumerus -5.775447200288103 1.7954689761454858 -70.45708290651521
rradius 24.226887052566955
rwrist 32.81523318407456
rhand -11.101875644854093 13.854150297396439
rfingers 7.125020000000026
rthumb 14.858784186476678 -15.739510147597441
lclavicle 7.656879945861265E-16 -7.509039225025653E-16
lhumerus -2.044922757035401 -1.252639901166205 66.75910102519015
lradius 49.64442800178503
lwrist -2.2122672874061635
lhand -17.02161079034196 25.72336378048766
lfingers 7.098558976900991
lthumb 8.98231628122687 57.40221909040008
rfemur -5.174046053017637 12.253633738712548 21.015771894311328
rtibia 32.23829487675011
rfoot -17.690861510020692 -11.564192577340622
rtoes -2.7938080040830613
lfemur -9.808173308291275 -6.031239918663857 -13.11321781135779
ltibia 28.089591219633462
lfoot -12.014641095792314 11.028148241322404
ltoes -2.097034550558142
3
root 0 0 0 -0.5527420248729404 -2.8714281232845487 -4.633628117353238
lowerback 7.114795101971048 1.790493548921912 2.211348012123742
upperback 0.18509548667617848 2.6588049210920754 0.04524904740791069
thorax -3.7963962741881407 1.3112751042415414 -1.4367424156321955
lowerneck -13.491776740390415 -1.981498748369595 -3.5797417300906424
upperneck 13.341634723720677 -2.3579950078839014 1.572260631165098
head 6.689797833512794 -1.0128302619965424 0.8337871766494644
rclavicle -2.7003263469143474E-15 2.4241178092905584E-16
rhumerus -5.97962990273202 1.8947008867405728 -70.56184266680508
rradius 24.097430357063637
rwrist 32.87619380587371
rhand -11.01492434377311 13.91023385531406
rfingers 7.125020000000026
rthumb 14.941731321368374 -15.681163864170673
lclavicle 7.365192518765294E-16 -7.5123366823275565E-16
lhumerus -3.0352351458545304 -1.053187530537457 67.1809280878841
lradius 48.081561133017914
lwrist -3.6486295651088447
lhand -16.529366514137187 25.34781723216574
lfingers 7.097186231847085
lthumb 9.448797278420209 57.51985496851854
rfemur -8.634803865012502 10.786964210065701 19.691964864953718
rtibia 36.093630783360176
rfoot -15.630121084886525 -11.246621382992991
rtoes -2.524572602048389
lfemur -9.604715797111906 -5.833904305265807 -13.26897914362872
ltibia 28.305101843556052
lfoot -12.349435873870343 11.06565535144433
ltoes -2.1493943029054314
4
root 0 0 0 -0.7087804472711348 -2.9245048577517405 -4.499208556736915
lowerback 7.025750389579265 1.727902829022711 2.144094513058657
upperback 0.17216849447311855 2.574490440276745 0.06391349442797978
thorax -3.7579056614979036 1.2695402639932247 -1.3697462194329226
lowerneck -13.453256765494414 -1.8980109727943368 -3.574093328088383
upperneck 13.609001015025113 -2.252151175007608 1.495640853599335
head 6.751615747578237 -0.9651859621199761 0.8129984064955744
rclavicle -2.7081205438145687E-15 2.4565082620075374E-16
rhumerus -6.183943452388565 1.979166759961963 -70.66131992821992
rradius 23.941604359166664
rwrist 32.96170714574397
rhand -10.920009789664485 13.979556151816864
rfingers 7.125020000000026
rthumb 15.032352129582033 -15.610286558260142
lclavicle 6.737198074158466E-16 -7.34847501626599E-16
lhumerus -4.494697835946126 -1.2543145262530615 68.01650006849417
lradius 46.600178204691616
lwrist -5.266031906609445
lhand -15.809834053579529 24.969397606507282
lfingers 7.095563324380394
lthumb 10.134854542339163 57.65990329834052
rfemur -13.09191454642114 8.939440634293675 17.976644113062548
rtibia 40.920495650142435
rfoot -13.011147327256158 -10.918826156001185
rtoes -2.1611458992725048
lfemur -9.238784594233403 -5.617843462950734 -13.479055630954157
ltibia 28.38736746138391
lfoot -12.844382373564132 11.244177546462424
ltoes -2.149727682111663
